# AST/ASF file generated using VICON BodyLanguage
# -----------------------------------------------
:version 1.10
:name VICON
:units
  mass 1.0
  length 0.45
  angle deg
:documentation
   .ast/.asf automatically generated from VICON data using
   VICON BodyBuilder and BodyLanguage model FoxedUp or BRILLIANT.MOD
:root
   order TX TY TZ RX RY RZ
   axis XYZ
   position 0 0 0  
   orientation 0 0 0 
:bonedata
  begin
     id 1 
     name lhipjoint
     direction 0.521452 -0.77106 0.36545 
     length 2.0933 
     axis 0 0 0  XYZ
  end
  begin
     id 2 
     name lfemur
     direction 0.34202 -0.939693 0  
     length 6.83441  
     axis 0 0 20  XYZ
    dof rx ry rz
    limits (-160.0 20.0)
           (-70.0 70.0)
           (-60.0 70.0)
  end
  begin
     id 3 
     name ltibia
     direction 0.34202 -0.939693 0   
     length 7.28749   
     axis 0 0 20   XYZ
    dof rx
    limits (-10.0 170.0)
  end
  begin
     id 4 
     name lfoot
     direction 0.100608 -0.276418 0.955757   
     length 1.52195   
     axis -90 7.62852e-016 20   XYZ
    dof rx rz
    limits (-45.0 90.0)
           (-70.0 20.0)
  end
  begin
     id 5 
     name ltoes
     direction 1.53558e-011 -4.21907e-011 1   
     length 0.770459   
     axis -90 7.62852e-016 20   XYZ
    dof rx
    limits (-90.0 20.0)
  end
  begin
     id 6 
     name rhipjoint
     direction -0.488071 -0.788702 0.373812   
     length 2.04648  
     axis 0 0 0  XYZ 
  end
  begin
     id 7 
     name rfemur
     direction -0.34202 -0.939693 0   
     length 6.92583   
     axis 0 0 -20   XYZ
    dof rx ry rz
    limits (-160.0 20.0)
           (-70.0 70.0)
           (-70.0 60.0)
  end
  begin
     id 8 
     name rtibia
     direction -0.34202 -0.939693 0   
     length 7.41043   
     axis 0 0 -20   XYZ
    dof rx
    limits (-10.0 170.0)
 end
 begin
     id 9 
     name rfoot
     direction -0.0784433 -0.215521 0.973343   
     length 1.67708  
     axis -90 -7.62852e-016 -20   XYZ
    dof rx rz
    limits (-45.0 90.0)
           (-20.0 70.0)
  end
  begin
     id 10 
     name rtoes
     direction -1.53551e-011 -4.21842e-011 1   
     length 0.849787   
     axis -90 -7.62852e-016 -20   XYZ
    dof rx
    limits (-90.0 20.0)
  end
  begin
     id 11 
     name lowerback
     direction -0.0122332 0.997575 -0.0685192   
     length 1.98724   
     axis 0 0 0   XYZ
    dof rx ry rz
    limits (-20.0 45.0)
           (-30.0 30.0)
           (-30.0 30.0)
  end
  begin
     id 12 
     name upperback
     direction 0.0182347 0.999724 -0.0148421   
     length 1.99029   
     axis 0 0 0   XYZ
    dof rx ry rz
    limits (-20.0 45.0)
           (-30.0 30.0)
           (-30.0 30.0)
  end
  begin
     id 13 
     name thorax
     direction 0.0242908 0.99956 0.0170184   
     length 1.99573   
     axis 0 0 0   XYZ
    dof rx ry rz
    limits (-20.0 45.0)
           (-30.0 30.0)
           (-30.0 30.0)
  end
  begin
     id 14 
     name lowerneck
     direction 0.0654488 0.985533 0.156338   
     length 1.4285   
     axis 0 0 0   XYZ
    dof rx ry rz
    limits (-20.0 45.0)
           (-30.0 30.0)
           (-30.0 30.0)
  end
  begin
     id 15 
     name upperneck
     direction -0.02953 0.998556 -0.0448842   
     length 1.44709   
     axis 0 0 0   XYZ
    dof rx ry rz
    limits (-20.0 45.0)
           (-30.0 30.0)
           (-30.0 30.0)
  end
  begin
     id 16
     name head
     direction -0.0155588 0.999386 -0.0314063  
     length 1.44689  
     axis 0 0 0   XYZ
    dof rx ry rz
    limits (-20.0 45.0)
           (-30.0 30.0)
           (-30.0 30.0)
  end
  begin
     id 17 
     name lclavicle
     direction 0.968229 0.236071 -0.0824755  
     length 3.60593  
     axis 0 0 0   XYZ
    dof ry rz
    limits (-20.0 10.0)
           (0.0 20.0)
  end
  begin
     id 18 
     name lhumerus
     direction 1 -4.48968e-011 7.8138e-029   
     length 5.06035   
     axis 180 -30 -90   XYZ
    dof rx ry rz
    limits (-60.0 90.0)
           (-90.0 90.0)
           (-90.0 90.0)
  end
  begin
     id 19
     name lradius
     direction 1 -4.48967e-011 9.02887e-028   
     length 3.1478   
     axis 180 -30 -90   XYZ
    dof rx
    limits (-10.0 170.0)
  end
  begin
     id 20
     name lwrist
     direction 1 -4.48961e-011 7.20928e-028   
     length 1.5739   
     axis -5.52449e-016 90 90   XYZ
    dof ry
    limits (-180.0 0.0)
 end
  begin
     id 21 
     name lhand
     direction 1 -4.48972e-011 1.44186e-027   
     length 0.606747   
     axis -9.20027e-016 90 90   XYZ
    dof rx rz
    limits (-90.0 90.0)
           (-45.0 45.0)
  end
  begin
     id 22 
     name lfingers
     direction 1 -4.48943e-011 2.88371e-027   
     length 0.489175   
     axis -1.84005e-015 90 90   XYZ
    dof rx
    limits (0.0 90.0)
  end
  begin
     id 23
     name lthumb
     direction 0.707107 -6.34917e-011 0.707107   
     length 0.70236   
     axis -90 45 2.85299e-015   XYZ
    dof rx rz
    limits (-45.0 45.0)
           (-45.0 45.0)
  end
  begin
     id 24 
     name rclavicle
     direction -0.978165 0.207816 0.0022268   
     length 3.35425  
     axis 0 0 0   XYZ 
    dof ry rz
    limits (-10.0 20.0)
           (-20.0 0.0)
  end
  begin
     id 25 
     name rhumerus
     direction -1 -4.48964e-011 -4.02159e-027  
     length 5.12273   
     axis 180 30 90   XYZ
    dof rx ry rz
    limits (-90.0 60.0)
           (-90.0 90.0)
           (-90.0 90.0)
  end
  begin
     id 26 
     name rradius
     direction -1 -4.48966e-011 1.62746e-027   
     length 3.422   
     axis 180 30 90   XYZ
    dof rx
    limits (-10.0 170.0)
  end
  begin
     id 27 
     name rwrist
     direction -1 -4.4896e-011 7.20928e-028   
     length 1.711   
     axis -5.52449e-016 -90 -90   XYZ
    dof ry
    limits (-180.0 0.0)
  end
  begin
     id 28
     name rhand
     direction -1 -4.48979e-011 1.44186e-027   
     length 0.704599   
     axis -9.20027e-016 -90 -90   XYZ
    dof rx rz
    limits (-90.0 90.0)
           (-45.0 45.0)
  end
  begin
     id 29
     name rfingers
     direction -1 -4.48962e-011 2.88371e-027   
     length 0.568066   
     axis -1.84005e-015 -90 -90   XYZ
    dof rx
    limits (0.0 90.0)
  end
  begin
     id 30
     name rthumb
     direction -0.707107 -6.34949e-011 0.707107   
     length 0.815633   
     axis -90 -45 -2.85299e-015   XYZ
    dof rx rz
    limits (-45.0 45.0)
           (-45.0 45.0)
  end
:hierarchy
  begin
    root lhipjoint rhipjoint lowerback
    lhipjoint lfemur
    lfemur ltibia
    ltibia lfoot
    lfoot ltoes
    rhipjoint rfemur
    rfemur rtibia
    rtibia rfoot
    rfoot rtoes
    lowerback upperback
    upperback thorax
    thorax lowerneck lclavicle rclavicle
    lowerneck upperneck
    upperneck head
    lclavicle lhumerus
    lhumerus lradius
    lradius lwrist
    lwrist lhand lthumb
    lhand lfingers
    rclavicle rhumerus
    rhumerus rradius
    rradius rwrist
    rwrist rhand rthumb
    rhand rfingers
  end

#!OML:ASF E:\id_vita\Project 1\Capture day 1\Session 1\Male1.ASF
:FULLY-SPECIFIED
:DEGREES
33
root -22.4356 15.5588 -1.99206 126.028 82.5705 121.066
lowerback -3.87002 -4.8847 -8.50629
upperback 1.04797 -6.0217 -0.709397
thorax 4.06694 -3.16718 3.51393
lowerneck -9.3497 0.86815 3.7926
upperneck 1.44786 0.724611 1.01995
head 2.07307 0.438603 -0.293912
rclavicle 4.60621e-015 -7.60351e-015
rhumerus -136.268 -24.4977 72.6107
rradius 5.11351
rwrist 134.987
rhand -24.037 40.9511
rfingers 7.12502
rthumb 2.44162 10.9853
lclavicle 4.60621e-015 -7.60351e-015
lhumerus 3.46298 -1.97652 88.0488
lradius 38.1223
lwrist 9.21222
lhand -12.7936 36.4725
lfingers 7.12502
lthumb 13.2922 66.0286
rfemur -35.3658 2.90585 9.77725
rtibia 16.4868
rfoot -10.4244 -14.4999
rtoes 11.3455
lfemur 18.0198 -3.63047 -27.4989
ltibia 5.11755
lfoot -19.6712 -10.2497
ltoes -9.47475
34
root -22.2213 15.5369 -1.97366 128.283 82.4294 123.32
lowerback -3.59312 -5.00962 -8.94902
upperback 0.993507 -6.21681 -0.306291
thorax 3.97421 -3.27853 4.17968
lowerneck -9.59348 0.818061 3.59856
upperneck 1.68282 0.66648 0.89477
head 2.19476 0.407532 -0.302853
rclavicle -1.75676e-014 -6.26172e-015
rhumerus -135.412 -24.5525 72.7526
rradius 4.81109
rwrist 134.775
rhand -23.5114 41.4978
rfingers 7.12502
rthumb 2.94921 11.5384
lclavicle -1.75676e-014 -6.26172e-015
lhumerus 3.86283 -1.83469 88.4588
lradius 38.2782
lwrist 9.24165
lhand -12.8698 36.3962
lfingers 7.12502
lthumb 13.2187 65.9571
rfemur -35.3561 2.77166 9.85703
rtibia 16.0822
rfoot -9.59925 -15.0263
rtoes 6.03976
lfemur 19.3382 -3.87135 -27.2477
ltibia 3.88535
lfoot -18.4133 -11.6486
ltoes -9.60623
35
root -21.9817 15.4996 -1.96193 124.952 82.0154 120.298
lowerback -3.52896 -5.01114 -9.39926
upperback 1.16996 -6.1796 -0.540432
thorax 4.14294 -3.27557 4.18114
lowerneck -9.63191 0.810932 3.7342
upperneck 1.65246 0.63407 1.09511
head 2.19078 0.399803 -0.263674
rclavicle -4.60559e-014 -1.42131e-014
rhumerus -135.549 -24.7176 72.773
rradius 5.48979
rwrist 134.569
rhand -22.8369 41.3575
rfingers 7.12502
rthumb 3.60064 11.4082
lclavicle -4.60559e-014 -1.42131e-014
lhumerus 4.16868 -1.94603 88.2504
lradius 38.4473
lwrist 9.37525
lhand -13.0611 36.4007
lfingers 7.12502
lthumb 13.0343 65.9734
rfemur -35.0191 1.88694 9.82228
rtibia 16.0242
rfoot -9.75706 -13.8014
rtoes 4.26822
lfemur 20.3931 -3.6196 -27.8175
ltibia 4.27424
lfoot -17.9825 -12.1344
ltoes -9.41797
36
root -21.7534 15.4883 -1.95341 132.723 82.0804 128.061
lowerback -3.36882 -5.29434 -8.90343
upperback 1.10353 -6.63005 -0.0467138
thorax 4.04923 -3.49539 4.3943
lowerneck -9.5464 0.84727 3.48244
upperneck 1.62451 0.70817 1.28293
head 2.16401 0.439605 -0.156932
rclavicle -2.6339e-015 8.34896e-015
rhumerus -136.245 -25.468 73.5927
rradius 7.06848
rwrist 134.502
rhand -22.1524 40.7088
rfingers 7.12502
rthumb 4.26161 10.7717
lclavicle -2.6339e-015 8.34896e-015
lhumerus 4.34924 -1.52128 88.701
lradius 38.4909
lwrist 9.25295
lhand -13.3228 36.3629
lfingers 7.12502
lthumb 12.782 65.9516
rfemur -34.7743 1.53244 10.5898
rtibia 16.1949
rfoot -10.0801 -13.6111
rtoes 5.59671
lfemur 20.3298 -4.34663 -26.8837
ltibia 5.85805
lfoot -17.7594 -12.6025
ltoes -9.72631
37
root -21.5258 15.453 -1.93441 132.659 82.5589 128.556
lowerback -2.77656 -5.14678 -8.60072
upperback 1.21547 -6.50962 0.10508
thorax 3.79761 -3.42865 4.44892
lowerneck -9.50795 0.900137 3.44524
upperneck 1.67672 0.774405 1.5147
head 2.17353 0.480685 -0.0734225
rclavicle -1.07219e-013 -1.19271e-015
rhumerus -136.232 -25.6004 73.7338
rradius 7.55865
rwrist 134.587
rhand -22.0363 40.2551
rfingers 7.12502
rthumb 4.37367 10.3203
lclavicle -1.07219e-013 -1.19271e-015
lhumerus 4.37127 -1.57372 88.7537
lradius 38.605
lwrist 9.44726
lhand -13.4975 36.389
lfingers 7.12502
lthumb 12.6136 65.9882
rfemur -34.3273 1.01971 11.7794
rtibia 16.9677
rfoot -8.75705 -12.3097
rtoes -3.81246
lfemur 21.1006 -3.93505 -26.3267
ltibia 7.09492
lfoot -16.9145 -13.2434
ltoes -6.37769
